<svg xmlns="http://www.w3.org/2000/svg" viewBox="0 0 400 300" width="100%" height="100%">
  <defs>
    <!-- Background Gradient -->
    <linearGradient id="bgGrad" x1="0%" y1="0%" x2="100%" y2="100%">
      <stop offset="0%" stop-color="#fff7ed" />
      <stop offset="100%" stop-color="#ffedd5" />
    </linearGradient>

    <!-- Metallic Foil Gradient -->
    <linearGradient id="foilGrad" x1="0%" y1="0%" x2="100%" y2="100%">
      <stop offset="0%" stop-color="#f8fafc" />
      <stop offset="25%" stop-color="#e2e8f0" />
      <stop offset="50%" stop-color="#cbd5e1" />
      <stop offset="75%" stop-color="#f1f5f9" />
      <stop offset="100%" stop-color="#94a3b8" />
    </linearGradient>

    <!-- Tube Gradient -->
    <linearGradient id="tubeGrad" x1="0%" y1="0%" x2="100%" y2="0%">
      <stop offset="0%" stop-color="#ea580c" />
      <stop offset="60%" stop-color="#c2410c" />
      <stop offset="100%" stop-color="#0f172a" />
    </linearGradient>

    <!-- Shadow -->
    <filter id="dropShadow" x="-10%" y="-10%" width="130%" height="130%">
      <feDropShadow dx="0" dy="8" stdDeviation="6" flood-color="#0f172a" flood-opacity="0.12" />
    </filter>

    <filter id="subtleGlow" x="-20%" y="-20%" width="140%" height="140%">
      <feGaussianBlur stdDeviation="15" result="blur" />
    </filter>
  </defs>

  <!-- Background Canvas -->
  <rect width="400" height="300" rx="24" fill="url(#bgGrad)" />

  <!-- Background Decorative Medical Grid/Glow -->
  <circle cx="200" cy="150" r="110" fill="#ea580c" opacity="0.08" filter="url(#subtleGlow)" />
  <circle cx="360" cy="40" r="70" fill="#c2410c" opacity="0.06" filter="url(#subtleGlow)" />

  <!-- Top Banner / Prescription Badge -->
  <g transform="translate(24, 24)">
    <rect x="0" y="0" width="125" height="24" rx="8" fill="#059669" />
    <text x="62.5" y="16" font-family="'Plus Jakarta Sans', Arial, sans-serif" font-weight="900" font-size="10" fill="#ffffff" text-anchor="middle" letter-spacing="0.5">
      🟢 100% GENUINE
    </text>
  </g>

  <!-- Top Right Pharma Category Badge -->
  <g transform="translate(270, 24)">
    <rect x="0" y="0" width="105" height="24" rx="8" fill="#ffffff" stroke="#e2e8f0" stroke-width="1" />
    <text x="52.5" y="16" font-family="'Plus Jakarta Sans', Arial, sans-serif" font-weight="800" font-size="9" fill="#c2410c" text-anchor="middle">
      CAPSULES
    </text>
  </g>

  <!-- Center 3D Medicine Graphic Representation -->
  
      <!-- Metallic Silver Blister Foil -->
      <g transform="translate(0, 0)">
        <rect x="90" y="80" width="220" height="190" rx="16" fill="url(#foilGrad)" stroke="#94a3b8" stroke-width="1.5" filter="url(#dropShadow)" />
        <!-- Pockets Pattern -->
        
            <g transform="translate(105, 88) rotate(45, 12, 12)">
              <rect x="0" y="0" width="12" height="24" rx="6" fill="#ea580c" />
              <rect x="12" y="0" width="12" height="24" rx="6" fill="#fdba74" />
            </g>
          
            <g transform="translate(140, 88) rotate(45, 12, 12)">
              <rect x="0" y="0" width="12" height="24" rx="6" fill="#ea580c" />
              <rect x="12" y="0" width="12" height="24" rx="6" fill="#fdba74" />
            </g>
          
            <g transform="translate(175, 88) rotate(45, 12, 12)">
              <rect x="0" y="0" width="12" height="24" rx="6" fill="#ea580c" />
              <rect x="12" y="0" width="12" height="24" rx="6" fill="#fdba74" />
            </g>
          
            <g transform="translate(210, 88) rotate(45, 12, 12)">
              <rect x="0" y="0" width="12" height="24" rx="6" fill="#ea580c" />
              <rect x="12" y="0" width="12" height="24" rx="6" fill="#fdba74" />
            </g>
          
            <g transform="translate(245, 88) rotate(45, 12, 12)">
              <rect x="0" y="0" width="12" height="24" rx="6" fill="#ea580c" />
              <rect x="12" y="0" width="12" height="24" rx="6" fill="#fdba74" />
            </g>
          
            <g transform="translate(105, 123) rotate(45, 12, 12)">
              <rect x="0" y="0" width="12" height="24" rx="6" fill="#ea580c" />
              <rect x="12" y="0" width="12" height="24" rx="6" fill="#fdba74" />
            </g>
          
            <g transform="translate(140, 123) rotate(45, 12, 12)">
              <rect x="0" y="0" width="12" height="24" rx="6" fill="#ea580c" />
              <rect x="12" y="0" width="12" height="24" rx="6" fill="#fdba74" />
            </g>
          
            <g transform="translate(175, 123) rotate(45, 12, 12)">
              <rect x="0" y="0" width="12" height="24" rx="6" fill="#ea580c" />
              <rect x="12" y="0" width="12" height="24" rx="6" fill="#fdba74" />
            </g>
          
            <g transform="translate(210, 123) rotate(45, 12, 12)">
              <rect x="0" y="0" width="12" height="24" rx="6" fill="#ea580c" />
              <rect x="12" y="0" width="12" height="24" rx="6" fill="#fdba74" />
            </g>
          
            <g transform="translate(245, 123) rotate(45, 12, 12)">
              <rect x="0" y="0" width="12" height="24" rx="6" fill="#ea580c" />
              <rect x="12" y="0" width="12" height="24" rx="6" fill="#fdba74" />
            </g>
          
            <g transform="translate(105, 158) rotate(45, 12, 12)">
              <rect x="0" y="0" width="12" height="24" rx="6" fill="#ea580c" />
              <rect x="12" y="0" width="12" height="24" rx="6" fill="#fdba74" />
            </g>
          
            <g transform="translate(140, 158) rotate(45, 12, 12)">
              <rect x="0" y="0" width="12" height="24" rx="6" fill="#ea580c" />
              <rect x="12" y="0" width="12" height="24" rx="6" fill="#fdba74" />
            </g>
          
            <g transform="translate(175, 158) rotate(45, 12, 12)">
              <rect x="0" y="0" width="12" height="24" rx="6" fill="#ea580c" />
              <rect x="12" y="0" width="12" height="24" rx="6" fill="#fdba74" />
            </g>
          
            <g transform="translate(210, 158) rotate(45, 12, 12)">
              <rect x="0" y="0" width="12" height="24" rx="6" fill="#ea580c" />
              <rect x="12" y="0" width="12" height="24" rx="6" fill="#fdba74" />
            </g>
          
            <g transform="translate(245, 158) rotate(45, 12, 12)">
              <rect x="0" y="0" width="12" height="24" rx="6" fill="#ea580c" />
              <rect x="12" y="0" width="12" height="24" rx="6" fill="#fdba74" />
            </g>
          
            <g transform="translate(105, 193) rotate(45, 12, 12)">
              <rect x="0" y="0" width="12" height="24" rx="6" fill="#ea580c" />
              <rect x="12" y="0" width="12" height="24" rx="6" fill="#fdba74" />
            </g>
          
            <g transform="translate(140, 193) rotate(45, 12, 12)">
              <rect x="0" y="0" width="12" height="24" rx="6" fill="#ea580c" />
              <rect x="12" y="0" width="12" height="24" rx="6" fill="#fdba74" />
            </g>
          
            <g transform="translate(175, 193) rotate(45, 12, 12)">
              <rect x="0" y="0" width="12" height="24" rx="6" fill="#ea580c" />
              <rect x="12" y="0" width="12" height="24" rx="6" fill="#fdba74" />
            </g>
          
            <g transform="translate(210, 193) rotate(45, 12, 12)">
              <rect x="0" y="0" width="12" height="24" rx="6" fill="#ea580c" />
              <rect x="12" y="0" width="12" height="24" rx="6" fill="#fdba74" />
            </g>
          
            <g transform="translate(245, 193) rotate(45, 12, 12)">
              <rect x="0" y="0" width="12" height="24" rx="6" fill="#ea580c" />
              <rect x="12" y="0" width="12" height="24" rx="6" fill="#fdba74" />
            </g>
          
      </g>
    

  <!-- Bottom Brand Card Stage -->
  <g transform="translate(24, 215)">
    <rect x="0" y="0" width="352" height="62" rx="16" fill="#ffffff" stroke="#e2e8f0" stroke-width="1.5" filter="url(#dropShadow)" />
    
    <!-- Accent Left Bar -->
    <rect x="0" y="0" width="6" height="62" rx="3" fill="#ea580c" />

    <!-- Brand Name -->
    <text x="18" y="24" font-family="'Plus Jakarta Sans', Arial, sans-serif" font-weight="900" font-size="15" fill="#0f172a" letter-spacing="-0.3">
      OMEZ 20
    </text>

    <!-- Active Salt Composition -->
    <text x="18" y="40" font-family="'Plus Jakarta Sans', Arial, sans-serif" font-weight="700" font-size="10" fill="#ea580c">
      🔬 Omeprazole Capsules IP 20 mg
    </text>

    <!-- Manufacturer & Type -->
    <text x="18" y="53" font-family="'Plus Jakarta Sans', Arial, sans-serif" font-weight="600" font-size="8.5" fill="#64748b">
      DR. REDDYS LABS • CAPSULES
    </text>

    <!-- Security Hologram Seal Icon -->
    <g transform="translate(305, 12)">
      <circle cx="18" cy="18" r="16" fill="#fff7ed" stroke="#ea580c" stroke-width="1.5" />
      <text x="18" y="23" font-size="16" text-anchor="middle">🛡️</text>
    </g>
  </g>
</svg>